<svg width="165" height="192" viewBox="0 0 165 192" fill="none" xmlns="http://www.w3.org/2000/svg">
<path d="M94.7871 7.5C102.971 8.82873 105.353 11.0083 109.566 16.6279L111.028 20.2578L107.923 28.0986L105.22 21.4092C101.621 16.3184 99.4656 15.0209 93.918 14.4541L48.2783 14.0195L102.611 144.854L119.998 117.904L148.251 127.901L134.687 94.334L137.31 85.5L159.117 139.638L122.249 124.858L100.951 157.023L56.5371 48.793L22.1992 137.464L66.9688 92.6934L69.5771 98.7793L10.4629 157.894L10.0283 23.582C11.9357 14.1974 15.4627 10.9312 25.2412 7.93457L94.7871 7.5ZM27.415 14.0195C21.8106 16.3135 19.2992 18.4263 16.5479 24.4521V132.683L52.625 40.0996C46.8045 19.7319 43.111 15.388 36.1084 14.4541L27.415 14.0195ZM124.028 52.5303L130.663 69L129.528 76L127.798 77.2842L120.124 58.2939L122.528 52.5L124.028 52.5303Z" fill="url(#paint0_linear_1020_2712)"/>
<path d="M133.021 68C133.034 68.0361 135.741 75.1717 136.336 77.8906C136.378 77.8999 139.547 78.6088 146.528 80.9922C139.547 83.3756 136.378 84.0999 136.336 84.1094C135.741 86.8283 133.034 93.9638 133.021 94C133.021 94 130.318 86.8353 129.705 84.1094C129.705 84.1094 126.556 83.3915 119.528 80.9922C126.555 78.5929 129.705 77.8906 129.705 77.8906C130.368 75.1647 133.021 68 133.021 68ZM93.0449 54C93.0563 54.0364 95.8983 63.1122 96.5703 66.5605C96.6067 66.5701 100.006 67.4676 107.528 70.5C100.007 73.5294 96.607 74.4298 96.5703 74.4395C95.901 77.8891 93.0606 86.9606 93.0449 87C93.0449 87 90.1606 77.8948 89.5195 74.4395C89.5195 74.4395 86.1229 73.5488 78.5283 70.5C86.123 67.4541 89.5195 66.5605 89.5195 66.5605C90.1606 63.1056 93.0449 54 93.0449 54ZM114.189 17C114.204 17.0397 119.591 31.5607 120.824 37.0889C120.883 37.1021 127.298 38.5483 141.52 43.3936C127.302 48.2375 120.887 49.6841 120.824 49.6982C119.593 55.2174 114.222 69.6895 114.189 69.7764C114.165 69.7099 108.786 55.2213 107.555 49.6982C107.555 49.6982 101.146 48.2614 86.8584 43.3936C101.146 38.5255 107.555 37.0889 107.555 37.0889C108.789 31.5526 114.189 17 114.189 17Z" fill="white"/>
<path d="M4.534 187H-8.88109e-05L8.78684 169.545H14.4033L17.3948 187H12.8607L10.9431 173.943H10.8067L4.534 187ZM5.07946 180.131H14.5567L14.0113 183.335H4.534L5.07946 180.131ZM26.3905 169.545L23.4928 187H19.2741L22.1718 169.545H26.3905Z" fill="#7C3AED"/>
<path d="M30.534 187H25.9999L34.7868 169.545H40.4033L43.3948 187H38.8607L36.9431 173.943H36.8067L30.534 187ZM31.0795 180.131H40.5567L40.0113 183.335H30.534L31.0795 180.131ZM52.3905 169.545L49.4928 187H45.2741L48.1718 169.545H52.3905Z" fill="#7C3AED"/>
<path d="M62.676 186V174.364H67.1306C67.9715 174.364 68.6704 174.496 69.2272 174.761C69.7878 175.023 70.2064 175.381 70.4829 175.835C70.7632 176.29 70.9033 176.805 70.9033 177.381C70.9033 177.854 70.8124 178.259 70.6306 178.597C70.4488 178.93 70.2045 179.201 69.8976 179.409C69.5908 179.617 69.248 179.767 68.8692 179.858V179.972C69.2821 179.994 69.6779 180.121 70.0567 180.352C70.4393 180.58 70.7518 180.902 70.9942 181.318C71.2367 181.735 71.3579 182.239 71.3579 182.83C71.3579 183.432 71.212 183.973 70.9204 184.455C70.6287 184.932 70.1893 185.309 69.6022 185.585C69.0151 185.862 68.2764 186 67.3863 186H62.676ZM64.784 184.239H67.051C67.8162 184.239 68.3673 184.093 68.7045 183.801C69.0454 183.506 69.2158 183.127 69.2158 182.665C69.2158 182.32 69.1306 182.009 68.9601 181.733C68.7897 181.453 68.5473 181.233 68.2329 181.074C67.9185 180.911 67.5435 180.83 67.1079 180.83H64.784V184.239ZM64.784 179.312H66.8692C67.2329 179.312 67.5605 179.246 67.8522 179.114C68.1439 178.977 68.373 178.786 68.5397 178.54C68.7101 178.29 68.7954 177.994 68.7954 177.653C68.7954 177.203 68.6363 176.831 68.3181 176.54C68.0037 176.248 67.5359 176.102 66.9147 176.102H64.784V179.312ZM83.5894 180.182C83.5894 181.436 83.3546 182.509 82.8849 183.403C82.4189 184.294 81.7826 184.975 80.9758 185.449C80.1727 185.922 79.2617 186.159 78.2428 186.159C77.2239 186.159 76.311 185.922 75.5042 185.449C74.7011 184.972 74.0648 184.288 73.5951 183.398C73.1292 182.504 72.8962 181.432 72.8962 180.182C72.8962 178.928 73.1292 177.856 73.5951 176.966C74.0648 176.072 74.7011 175.388 75.5042 174.915C76.311 174.441 77.2239 174.205 78.2428 174.205C79.2617 174.205 80.1727 174.441 80.9758 174.915C81.7826 175.388 82.4189 176.072 82.8849 176.966C83.3546 177.856 83.5894 178.928 83.5894 180.182ZM81.4701 180.182C81.4701 179.299 81.3318 178.555 81.0553 177.949C80.7826 177.339 80.4038 176.879 79.9189 176.568C79.4341 176.254 78.8754 176.097 78.2428 176.097C77.6102 176.097 77.0515 176.254 76.5667 176.568C76.0818 176.879 75.7011 177.339 75.4246 177.949C75.1519 178.555 75.0155 179.299 75.0155 180.182C75.0155 181.064 75.1519 181.811 75.4246 182.42C75.7011 183.027 76.0818 183.487 76.5667 183.801C77.0515 184.112 77.6102 184.267 78.2428 184.267C78.8754 184.267 79.4341 184.112 79.9189 183.801C80.4038 183.487 80.7826 183.027 81.0553 182.42C81.3318 181.811 81.4701 181.064 81.4701 180.182ZM95.98 180.182C95.98 181.436 95.7452 182.509 95.2755 183.403C94.8096 184.294 94.1732 184.975 93.3664 185.449C92.5634 185.922 91.6524 186.159 90.6334 186.159C89.6145 186.159 88.7016 185.922 87.8948 185.449C87.0918 184.972 86.4554 184.288 85.9857 183.398C85.5198 182.504 85.2868 181.432 85.2868 180.182C85.2868 178.928 85.5198 177.856 85.9857 176.966C86.4554 176.072 87.0918 175.388 87.8948 174.915C88.7016 174.441 89.6145 174.205 90.6334 174.205C91.6524 174.205 92.5634 174.441 93.3664 174.915C94.1732 175.388 94.8096 176.072 95.2755 176.966C95.7452 177.856 95.98 178.928 95.98 180.182ZM93.8607 180.182C93.8607 179.299 93.7224 178.555 93.4459 177.949C93.1732 177.339 92.7944 176.879 92.3096 176.568C91.8247 176.254 91.266 176.097 90.6334 176.097C90.0009 176.097 89.4421 176.254 88.9573 176.568C88.4724 176.879 88.0918 177.339 87.8153 177.949C87.5425 178.555 87.4062 179.299 87.4062 180.182C87.4062 181.064 87.5425 181.811 87.8153 182.42C88.0918 183.027 88.4724 183.487 88.9573 183.801C89.4421 184.112 90.0009 184.267 90.6334 184.267C91.266 184.267 91.8247 184.112 92.3096 183.801C92.7944 183.487 93.1732 183.027 93.4459 182.42C93.7224 181.811 93.8607 181.064 93.8607 180.182ZM97.9729 186V174.364H100.081V179.71H100.223L104.763 174.364H107.337L102.837 179.585L107.376 186H104.842L101.371 181.011L100.081 182.534V186H97.9729ZM108.801 174.364H111.381L114.835 182.795H114.972L118.426 174.364H121.006V186H118.983V178.006H118.875L115.659 185.966H114.148L110.932 177.989H110.824V186H108.801V174.364ZM124.795 186H122.545L126.642 174.364H129.244L133.347 186H131.097L127.989 176.75H127.898L124.795 186ZM124.869 181.438H131.006V183.131H124.869V181.438ZM134.879 186V174.364H139.243C140.137 174.364 140.887 174.519 141.493 174.83C142.103 175.14 142.563 175.576 142.873 176.136C143.188 176.693 143.345 177.343 143.345 178.085C143.345 178.831 143.186 179.479 142.868 180.028C142.553 180.574 142.089 180.996 141.476 181.295C140.862 181.591 140.108 181.739 139.214 181.739H136.106V179.989H138.93C139.453 179.989 139.881 179.917 140.214 179.773C140.548 179.625 140.794 179.411 140.953 179.131C141.116 178.847 141.197 178.498 141.197 178.085C141.197 177.672 141.116 177.32 140.953 177.028C140.79 176.733 140.542 176.509 140.209 176.358C139.875 176.203 139.445 176.125 138.919 176.125H136.987V186H134.879ZM140.891 180.727L143.771 186H141.419L138.589 180.727H140.891ZM145.285 186V174.364H147.393V179.71H147.535L152.075 174.364H154.649L150.149 179.585L154.689 186H152.155L148.683 181.011L147.393 182.534V186H145.285ZM162.375 177.562C162.322 177.066 162.098 176.68 161.704 176.403C161.314 176.127 160.807 175.989 160.182 175.989C159.742 175.989 159.365 176.055 159.051 176.188C158.737 176.32 158.496 176.5 158.329 176.727C158.163 176.955 158.078 177.214 158.074 177.506C158.074 177.748 158.129 177.958 158.239 178.136C158.352 178.314 158.506 178.466 158.699 178.591C158.892 178.712 159.106 178.814 159.341 178.898C159.576 178.981 159.812 179.051 160.051 179.108L161.142 179.381C161.581 179.483 162.004 179.621 162.409 179.795C162.818 179.97 163.184 180.189 163.506 180.455C163.831 180.72 164.089 181.04 164.278 181.415C164.468 181.79 164.562 182.229 164.562 182.733C164.562 183.415 164.388 184.015 164.04 184.534C163.691 185.049 163.187 185.453 162.528 185.744C161.873 186.032 161.079 186.176 160.148 186.176C159.242 186.176 158.456 186.036 157.79 185.756C157.127 185.475 156.608 185.066 156.233 184.528C155.862 183.991 155.661 183.335 155.631 182.562H157.704C157.735 182.968 157.86 183.305 158.079 183.574C158.299 183.843 158.585 184.044 158.937 184.176C159.293 184.309 159.691 184.375 160.131 184.375C160.589 184.375 160.99 184.307 161.335 184.17C161.684 184.03 161.956 183.837 162.153 183.591C162.35 183.341 162.451 183.049 162.454 182.716C162.451 182.413 162.362 182.163 162.187 181.966C162.013 181.765 161.769 181.598 161.454 181.466C161.144 181.33 160.78 181.208 160.364 181.102L159.04 180.761C158.081 180.515 157.324 180.142 156.767 179.642C156.214 179.138 155.937 178.47 155.937 177.636C155.937 176.951 156.123 176.35 156.494 175.835C156.869 175.32 157.379 174.92 158.023 174.636C158.667 174.348 159.396 174.205 160.21 174.205C161.036 174.205 161.759 174.348 162.381 174.636C163.006 174.92 163.496 175.316 163.852 175.824C164.208 176.328 164.392 176.907 164.403 177.562H162.375Z" fill="white"/>
<defs>
<linearGradient id="paint0_linear_1020_2712" x1="10.0283" y1="157.798" x2="99.4379" y2="11.7983" gradientUnits="userSpaceOnUse">
<stop offset="0.399038" stop-color="#7C3AED"/>
<stop offset="1" stop-color="#06B6D4"/>
</linearGradient>
</defs>
</svg>
