<svg width="337" height="271" viewBox="0 0 337 271" fill="none" xmlns="http://www.w3.org/2000/svg">
<g clip-path="url(#clip0_304_187)">
<path d="M52.704 184.5C51.616 181.62 50.592 178.804 49.632 176.052C48.672 173.236 47.68 170.388 46.656 167.508H16.512L10.464 184.5H0.768C3.328 177.46 5.728 170.964 7.968 165.012C10.208 158.996 12.384 153.3 14.496 147.924C16.672 142.548 18.816 137.428 20.928 132.564C23.04 127.636 25.248 122.772 27.552 117.972H36.096C38.4 122.772 40.608 127.636 42.72 132.564C44.832 137.428 46.944 142.548 49.056 147.924C51.232 153.3 53.44 158.996 55.68 165.012C57.92 170.964 60.32 177.46 62.88 184.5H52.704ZM43.968 159.828C41.92 154.26 39.872 148.884 37.824 143.7C35.84 138.452 33.76 133.428 31.584 128.628C29.344 133.428 27.2 138.452 25.152 143.7C23.168 148.884 21.184 154.26 19.2 159.828H43.968ZM71.9123 117.972H81.2243V184.5H71.9123V117.972ZM164.36 184.5C163.272 181.62 162.248 178.804 161.288 176.052C160.328 173.236 159.336 170.388 158.312 167.508H128.168L122.12 184.5H112.424C114.984 177.46 117.384 170.964 119.624 165.012C121.864 158.996 124.04 153.3 126.152 147.924C128.328 142.548 130.472 137.428 132.584 132.564C134.696 127.636 136.904 122.772 139.208 117.972H147.752C150.056 122.772 152.264 127.636 154.376 132.564C156.488 137.428 158.6 142.548 160.712 147.924C162.888 153.3 165.096 158.996 167.336 165.012C169.576 170.964 171.976 177.46 174.536 184.5H164.36ZM155.624 159.828C153.576 154.26 151.528 148.884 149.48 143.7C147.496 138.452 145.416 133.428 143.24 128.628C141 133.428 138.856 138.452 136.808 143.7C134.824 148.884 132.84 154.26 130.856 159.828H155.624ZM183.569 117.972H192.881V184.5H183.569V117.972Z" fill="#646CFF"/>
<path d="M17.472 248.884C16.576 248.884 15.5947 248.863 14.528 248.82C13.504 248.777 12.4587 248.713 11.392 248.628C10.368 248.543 9.344 248.436 8.32 248.308C7.296 248.18 6.35733 248.009 5.504 247.796V204.788C6.35733 204.575 7.296 204.404 8.32 204.276C9.344 204.148 10.368 204.041 11.392 203.956C12.4587 203.871 13.504 203.807 14.528 203.764C15.552 203.721 16.512 203.7 17.408 203.7C19.968 203.7 22.3573 203.892 24.576 204.276C26.8373 204.66 28.7787 205.321 30.4 206.26C32.064 207.156 33.3653 208.351 34.304 209.844C35.2427 211.337 35.712 213.172 35.712 215.348C35.712 217.78 35.136 219.785 33.984 221.364C32.832 222.9 31.296 224.052 29.376 224.82C31.9787 225.588 34.048 226.804 35.584 228.468C37.12 230.132 37.888 232.479 37.888 235.508C37.888 239.945 36.2453 243.295 32.96 245.556C29.7173 247.775 24.5547 248.884 17.472 248.884ZM11.648 227.828V243.444C12.1173 243.487 12.672 243.529 13.312 243.572C13.8667 243.615 14.5067 243.657 15.232 243.7C16 243.7 16.8747 243.7 17.856 243.7C19.6907 243.7 21.4187 243.593 23.04 243.38C24.704 243.124 26.1547 242.697 27.392 242.1C28.6293 241.503 29.6107 240.671 30.336 239.604C31.104 238.537 31.488 237.193 31.488 235.572C31.488 234.121 31.2107 232.905 30.656 231.924C30.1013 230.9 29.2907 230.089 28.224 229.492C27.2 228.895 25.9627 228.468 24.512 228.212C23.0613 227.956 21.44 227.828 19.648 227.828H11.648ZM11.648 222.836H18.176C19.712 222.836 21.1627 222.729 22.528 222.516C23.8933 222.303 25.0667 221.919 26.048 221.364C27.072 220.809 27.8613 220.084 28.416 219.188C29.0133 218.292 29.312 217.161 29.312 215.796C29.312 214.516 29.0133 213.449 28.416 212.596C27.8187 211.7 26.9867 210.996 25.92 210.484C24.896 209.929 23.68 209.524 22.272 209.268C20.864 209.012 19.3707 208.884 17.792 208.884C16.2133 208.884 14.976 208.905 14.08 208.948C13.184 208.991 12.3733 209.055 11.648 209.14V222.836ZM75.621 231.86C75.621 234.505 75.237 236.895 74.469 239.028C73.701 241.161 72.613 242.996 71.205 244.532C69.8397 246.068 68.197 247.263 66.277 248.116C64.357 248.927 62.2663 249.332 60.005 249.332C57.7437 249.332 55.653 248.927 53.733 248.116C51.813 247.263 50.149 246.068 48.741 244.532C47.3757 242.996 46.309 241.161 45.541 239.028C44.773 236.895 44.389 234.505 44.389 231.86C44.389 229.257 44.773 226.889 45.541 224.756C46.309 222.58 47.3757 220.724 48.741 219.188C50.149 217.652 51.813 216.479 53.733 215.668C55.653 214.815 57.7437 214.388 60.005 214.388C62.2663 214.388 64.357 214.815 66.277 215.668C68.197 216.479 69.8397 217.652 71.205 219.188C72.613 220.724 73.701 222.58 74.469 224.756C75.237 226.889 75.621 229.257 75.621 231.86ZM69.413 231.86C69.413 228.105 68.5597 225.14 66.853 222.964C65.189 220.745 62.9063 219.636 60.005 219.636C57.1037 219.636 54.7997 220.745 53.093 222.964C51.429 225.14 50.597 228.105 50.597 231.86C50.597 235.615 51.429 238.601 53.093 240.82C54.7997 242.996 57.1037 244.084 60.005 244.084C62.9063 244.084 65.189 242.996 66.853 240.82C68.5597 238.601 69.413 235.615 69.413 231.86ZM113.371 231.86C113.371 234.505 112.987 236.895 112.219 239.028C111.451 241.161 110.363 242.996 108.955 244.532C107.59 246.068 105.947 247.263 104.027 248.116C102.107 248.927 100.016 249.332 97.755 249.332C95.4937 249.332 93.403 248.927 91.483 248.116C89.563 247.263 87.899 246.068 86.491 244.532C85.1257 242.996 84.059 241.161 83.291 239.028C82.523 236.895 82.139 234.505 82.139 231.86C82.139 229.257 82.523 226.889 83.291 224.756C84.059 222.58 85.1257 220.724 86.491 219.188C87.899 217.652 89.563 216.479 91.483 215.668C93.403 214.815 95.4937 214.388 97.755 214.388C100.016 214.388 102.107 214.815 104.027 215.668C105.947 216.479 107.59 217.652 108.955 219.188C110.363 220.724 111.451 222.58 112.219 224.756C112.987 226.889 113.371 229.257 113.371 231.86ZM107.163 231.86C107.163 228.105 106.31 225.14 104.603 222.964C102.939 220.745 100.656 219.636 97.755 219.636C94.8537 219.636 92.5497 220.745 90.843 222.964C89.179 225.14 88.347 228.105 88.347 231.86C88.347 235.615 89.179 238.601 90.843 240.82C92.5497 242.996 94.8537 244.084 97.755 244.084C100.656 244.084 102.939 242.996 104.603 240.82C106.31 238.601 107.163 235.615 107.163 231.86ZM133.777 230.196C135.057 231.177 136.401 232.393 137.809 233.844C139.26 235.295 140.668 236.873 142.033 238.58C143.441 240.244 144.764 241.951 146.001 243.7C147.238 245.407 148.284 247.007 149.137 248.5H142.161C141.265 247.007 140.22 245.492 139.025 243.956C137.873 242.377 136.657 240.884 135.377 239.476C134.097 238.025 132.796 236.703 131.473 235.508C130.15 234.313 128.892 233.311 127.697 232.5V248.5H121.745V199.86L127.697 198.836V229.172C128.721 228.148 129.852 227.017 131.089 225.78C132.326 224.543 133.542 223.284 134.737 222.004C135.932 220.724 137.062 219.508 138.129 218.356C139.196 217.161 140.113 216.116 140.881 215.22H147.857C146.876 216.287 145.809 217.46 144.657 218.74C143.505 220.02 142.31 221.321 141.073 222.644C139.836 223.924 138.577 225.225 137.297 226.548C136.06 227.828 134.886 229.044 133.777 230.196ZM155.183 216.18C156.548 215.839 158.34 215.476 160.559 215.092C162.82 214.708 165.423 214.516 168.367 214.516C170.5 214.516 172.292 214.815 173.743 215.412C175.193 215.967 176.409 216.799 177.391 217.908C177.689 217.695 178.159 217.396 178.799 217.012C179.439 216.628 180.228 216.265 181.167 215.924C182.105 215.54 183.151 215.22 184.303 214.964C185.455 214.665 186.692 214.516 188.015 214.516C190.575 214.516 192.665 214.9 194.287 215.668C195.908 216.393 197.167 217.439 198.063 218.804C199.001 220.169 199.62 221.791 199.919 223.668C200.26 225.545 200.431 227.593 200.431 229.812V248.5H194.479V231.092C194.479 229.129 194.372 227.444 194.159 226.036C193.988 224.628 193.625 223.455 193.071 222.516C192.559 221.577 191.833 220.895 190.895 220.468C189.999 219.999 188.825 219.764 187.375 219.764C185.369 219.764 183.705 220.041 182.382 220.596C181.103 221.108 180.228 221.577 179.759 222.004C180.1 223.113 180.356 224.329 180.527 225.652C180.697 226.975 180.783 228.361 180.783 229.812V248.5H174.831V231.092C174.831 229.129 174.724 227.444 174.511 226.036C174.297 224.628 173.913 223.455 173.359 222.516C172.847 221.577 172.121 220.895 171.183 220.468C170.287 219.999 169.135 219.764 167.727 219.764C167.129 219.764 166.489 219.785 165.807 219.828C165.124 219.871 164.463 219.935 163.823 220.02C163.225 220.063 162.671 220.127 162.159 220.212C161.647 220.297 161.305 220.361 161.135 220.404V248.5H155.183V216.18ZM221.572 244.212C222.98 244.212 224.217 244.191 225.284 244.148C226.393 244.063 227.31 243.935 228.036 243.764V233.844C227.609 233.631 226.905 233.46 225.924 233.332C224.985 233.161 223.833 233.076 222.468 233.076C221.572 233.076 220.612 233.14 219.588 233.268C218.606 233.396 217.689 233.673 216.836 234.1C216.025 234.484 215.342 235.039 214.788 235.764C214.233 236.447 213.956 237.364 213.956 238.516C213.956 240.649 214.638 242.143 216.004 242.996C217.369 243.807 219.225 244.212 221.572 244.212ZM221.06 214.388C223.449 214.388 225.454 214.708 227.076 215.348C228.74 215.945 230.062 216.82 231.044 217.972C232.068 219.081 232.793 220.425 233.22 222.004C233.646 223.54 233.86 225.247 233.86 227.124V247.924C233.348 248.009 232.622 248.137 231.684 248.308C230.788 248.436 229.764 248.564 228.612 248.692C227.46 248.82 226.201 248.927 224.836 249.012C223.513 249.14 222.19 249.204 220.868 249.204C218.99 249.204 217.262 249.012 215.684 248.628C214.105 248.244 212.74 247.647 211.588 246.836C210.436 245.983 209.54 244.873 208.9 243.508C208.26 242.143 207.94 240.5 207.94 238.58C207.94 236.745 208.302 235.167 209.028 233.844C209.796 232.521 210.82 231.455 212.1 230.644C213.38 229.833 214.873 229.236 216.58 228.852C218.286 228.468 220.078 228.276 221.956 228.276C222.553 228.276 223.172 228.319 223.812 228.404C224.452 228.447 225.049 228.532 225.604 228.66C226.201 228.745 226.713 228.831 227.14 228.916C227.566 229.001 227.865 229.065 228.036 229.108V227.444C228.036 226.463 227.929 225.503 227.716 224.564C227.502 223.583 227.118 222.729 226.564 222.004C226.009 221.236 225.241 220.639 224.26 220.212C223.321 219.743 222.084 219.508 220.548 219.508C218.585 219.508 216.857 219.657 215.364 219.956C213.913 220.212 212.825 220.489 212.1 220.788L211.396 215.86C212.164 215.519 213.444 215.199 215.236 214.9C217.028 214.559 218.969 214.388 221.06 214.388ZM256.033 214.516C256.545 214.516 257.121 214.559 257.761 214.644C258.444 214.687 259.105 214.772 259.745 214.9C260.385 214.985 260.961 215.092 261.473 215.22C262.028 215.305 262.433 215.391 262.689 215.476L261.665 220.66C261.196 220.489 260.406 220.297 259.297 220.084C258.23 219.828 256.844 219.7 255.137 219.7C254.028 219.7 252.918 219.828 251.809 220.084C250.742 220.297 250.038 220.447 249.697 220.532V248.5H243.745V216.628C245.153 216.116 246.902 215.647 248.993 215.22C251.084 214.751 253.43 214.516 256.033 214.516ZM280.465 230.196C281.745 231.177 283.089 232.393 284.497 233.844C285.947 235.295 287.355 236.873 288.721 238.58C290.129 240.244 291.451 241.951 292.689 243.7C293.926 245.407 294.971 247.007 295.825 248.5H288.849C287.953 247.007 286.907 245.492 285.713 243.956C284.561 242.377 283.345 240.884 282.065 239.476C280.785 238.025 279.483 236.703 278.161 235.508C276.838 234.313 275.579 233.311 274.385 232.5V248.5H268.433V199.86L274.385 198.836V229.172C275.409 228.148 276.539 227.017 277.777 225.78C279.014 224.543 280.23 223.284 281.425 222.004C282.619 220.724 283.75 219.508 284.817 218.356C285.883 217.161 286.801 216.116 287.569 215.22H294.545C293.563 216.287 292.497 217.46 291.345 218.74C290.193 220.02 288.998 221.321 287.761 222.644C286.523 223.924 285.265 225.225 283.985 226.548C282.747 227.828 281.574 229.044 280.465 230.196ZM309.614 244.212C312.046 244.212 313.838 243.892 314.99 243.252C316.185 242.612 316.782 241.588 316.782 240.18C316.782 238.729 316.206 237.577 315.054 236.724C313.902 235.871 312.003 234.911 309.358 233.844C308.078 233.332 306.841 232.82 305.646 232.308C304.494 231.753 303.491 231.113 302.638 230.388C301.785 229.663 301.102 228.788 300.59 227.764C300.078 226.74 299.822 225.481 299.822 223.988C299.822 221.044 300.91 218.719 303.086 217.012C305.262 215.263 308.227 214.388 311.982 214.388C312.921 214.388 313.859 214.452 314.798 214.58C315.737 214.665 316.611 214.793 317.422 214.964C318.233 215.092 318.937 215.241 319.534 215.412C320.174 215.583 320.665 215.732 321.006 215.86L319.918 220.98C319.278 220.639 318.275 220.297 316.91 219.956C315.545 219.572 313.902 219.38 311.982 219.38C310.318 219.38 308.867 219.721 307.63 220.404C306.393 221.044 305.774 222.068 305.774 223.476C305.774 224.201 305.902 224.841 306.158 225.396C306.457 225.951 306.883 226.463 307.438 226.932C308.035 227.359 308.761 227.764 309.614 228.148C310.467 228.532 311.491 228.937 312.686 229.364C314.265 229.961 315.673 230.559 316.91 231.156C318.147 231.711 319.193 232.372 320.046 233.14C320.942 233.908 321.625 234.847 322.094 235.956C322.563 237.023 322.798 238.345 322.798 239.924C322.798 242.996 321.646 245.321 319.342 246.9C317.081 248.479 313.838 249.268 309.614 249.268C306.67 249.268 304.366 249.012 302.702 248.5C301.038 248.031 299.907 247.668 299.31 247.412L300.398 242.292C301.081 242.548 302.169 242.932 303.662 243.444C305.155 243.956 307.139 244.212 309.614 244.212Z" fill="#CDCDCD"/>
<path d="M332.75 187.3C331.649 187.3 330.571 186.823 329.824 185.953L286.55 135.464L243.276 185.953C242.229 187.177 240.527 187.616 239.018 187.061C237.509 186.507 236.5 185.059 236.5 183.45V44.85C236.5 42.7248 238.225 41 240.35 41H332.75C334.875 41 336.6 42.7248 336.6 44.85V183.45C336.6 185.059 335.599 186.499 334.082 187.061C333.643 187.223 333.197 187.3 332.75 187.3ZM286.55 125.7C287.674 125.7 288.744 126.193 289.476 127.048L328.9 173.047V48.7077H244.2V173.047L283.624 127.048C284.355 126.193 285.426 125.7 286.55 125.7Z" fill="#CDCDCD"/>
<path d="M259.258 47.8977C256.899 43.3311 253.815 39.5145 249.555 36.716C246.725 34.8565 243.635 33.7107 240.208 33.566C240.029 33.5585 239.854 33.4786 239.5 33.3862C240.681 32.8255 241.811 32.9071 242.869 32.6688C248.652 31.3655 252.927 27.9242 256.338 23.3042C260.279 17.9667 262.354 11.908 263.33 5.41001C263.593 3.66315 263.388 1.88578 263.808 0C264.549 0.662252 264.28 1.41474 264.316 2.05644C264.784 10.1899 267.146 17.6665 272.226 24.1633C276.15 29.1837 281.177 32.4151 287.685 33.0901C287.954 33.1181 288.283 33.0184 288.5 33.4568C287.095 33.6269 285.714 33.6953 284.373 34.0555C278.015 35.7629 273.569 39.8874 270.201 45.2445C266.42 51.2602 264.547 57.8878 264.327 64.9704C264.306 65.6299 264.324 66.2905 264.041 67C263.6 60.3644 262.343 53.9555 259.258 47.8977Z" fill="#646CFF"/>
<path d="M263.262 112.248C259.416 116.502 258.036 121.544 257.564 127C257.323 125.404 257.166 123.79 256.827 122.214C255.663 116.807 253.285 112.179 248.122 109.362C246.717 108.596 245.102 108.514 243.5 107.907C251.671 105.843 256.63 99.8706 257.158 91.6545C257.215 90.7715 257.4 89.8965 257.673 89C257.957 93.2518 258.919 97.2906 261.179 100.942C263.532 104.743 266.76 107.33 271.5 107.897C268.283 108.507 265.508 109.797 263.262 112.248Z" fill="#646CFF"/>
<path d="M201.399 65.2145C198.985 68.4775 198.155 72.1618 197.569 76C196.459 68.6581 194.178 62.1986 185.5 60.0605C194.217 57.9191 196.468 51.408 197.529 44C198.733 51.2969 200.797 57.945 209.5 60.1094C206.112 60.7587 203.454 62.4637 201.399 65.2145Z" fill="#646CFF"/>
<path d="M239.003 70.2575C239.587 70.4259 239.621 70.7864 239.288 71.0226C237.712 72.1405 237.542 73.6533 237.984 75.3821C238.013 75.4958 237.897 75.6479 237.77 76C236.035 74.5651 234.236 74.575 232.312 75.9646C232.929 73.6759 232.468 71.9119 230.5 70.4958C232.832 70.335 234.422 69.3724 235.084 67C236.024 68.756 236.807 70.3437 239.003 70.2575Z" fill="#646CFF"/>
<path d="M215.568 21.8951C213.853 20.6377 212.235 20.7841 210.453 22C210.826 19.7894 210.571 17.9205 208.5 16.6819C209.618 15.9983 210.817 16.3666 211.518 15.7288C212.192 15.1162 212.538 14.1204 213.201 13C214.036 15.0877 215.201 16.5679 217.5 16.2902C217.438 16.6483 217.462 16.8459 217.383 16.9125C215.976 18.097 215.338 19.5149 216.018 21.3814C216.111 21.6364 215.961 21.8511 215.568 21.8951Z" fill="#646CFF"/>
<path d="M220.937 117.935C220.756 116.916 220.749 115.898 219.5 115.133C220.839 114.757 221.944 114.401 222.495 113C223.133 114.277 224.03 114.911 225.5 115.018C224.66 115.99 223.746 116.75 224.513 118C223.22 117.622 222.111 117.385 220.937 117.935Z" fill="#646CFF"/>
</g>
<defs>
<clipPath id="clip0_304_187">
<rect width="337" height="271" fill="white"/>
</clipPath>
</defs>
</svg>
